<svg xmlns="http://www.w3.org/2000/svg" xmlns:xlink="http://www.w3.org/1999/xlink" contentStyleType="text/css" data-diagram-type="CLASS" height="1206px" preserveAspectRatio="none" style="width:1141px;height:1206px;background:#FFFFFF;" version="1.1" viewBox="0 0 1141 1206" width="1141px" zoomAndPan="magnify"><defs/><g><!--cluster mw::log--><g id="cluster_mw::log"><path d="M8.5,219 L72.6572,219 A3.75,3.75 0 0 1 75.1572,221.5 L82.1572,241.2969 L1131.5,241.2969 A2.5,2.5 0 0 1 1134,243.7969 L1134,1196.5 A2.5,2.5 0 0 1 1131.5,1199 L8.5,1199 A2.5,2.5 0 0 1 6,1196.5 L6,221.5 A2.5,2.5 0 0 1 8.5,219 " fill="transparent" style="stroke:#000000;stroke-width:1.5;"/><line style="stroke:#000000;stroke-width:1.5;" x1="6" x2="82.1572" y1="241.2969" y2="241.2969"/><text fill="#000000" font-family="sans-serif" font-size="14" font-weight="bold" lengthAdjust="spacing" textLength="63.1572" x="10" y="233.9951">mw::log</text></g><!--cluster score::platform::datarouter--><g id="cluster_score::platform::datarouter"><path d="M589.5,6 L808.8945,6 A3.75,3.75 0 0 1 811.3945,8.5 L818.3945,28.2969 L1026.5,28.2969 A2.5,2.5 0 0 1 1029,30.7969 L1029,167.5 A2.5,2.5 0 0 1 1026.5,170 L589.5,170 A2.5,2.5 0 0 1 587,167.5 L587,8.5 A2.5,2.5 0 0 1 589.5,6 " fill="transparent" style="stroke:#000000;stroke-width:1.5;"/><line style="stroke:#000000;stroke-width:1.5;" x1="587" x2="818.3945" y1="28.2969" y2="28.2969"/><text fill="#000000" font-family="sans-serif" font-size="14" font-weight="bold" lengthAdjust="spacing" textLength="218.3945" x="591" y="20.9951">score::platform::datarouter</text></g><!--class ReaderFactory--><g id="elem_ReaderFactory"><rect codeLine="3" fill="#F1F1F1" height="80.5938" id="ReaderFactory" rx="2.5" ry="2.5" style="stroke:#181818;stroke-width:0.5;" width="619.5371" x="498" y="254"/><ellipse cx="752.2183" cy="270" fill="#B4A7E5" rx="11" ry="11" style="stroke:#181818;stroke-width:1;"/><path d="M748.1401,265.7656 L748.1401,263.6094 L755.5308,263.6094 L755.5308,265.7656 L753.062,265.7656 L753.062,273.8438 L755.5308,273.8438 L755.5308,276 L748.1401,276 L748.1401,273.8438 L750.6089,273.8438 L750.6089,265.7656 L748.1401,265.7656 Z " fill="#000000"/><text fill="#000000" font-family="sans-serif" font-size="14" font-style="italic" lengthAdjust="spacing" textLength="102.6006" x="772.7183" y="274.8467">ReaderFactory</text><line style="stroke:#181818;stroke-width:0.5;" x1="499" x2="1116.5371" y1="286" y2="286"/><line style="stroke:#181818;stroke-width:0.5;" x1="499" x2="1116.5371" y1="294" y2="294"/><ellipse cx="509" cy="307.6484" fill="#84BE84" rx="3" ry="3" style="stroke:#038048;stroke-width:1;"/><text fill="#000000" font-family="sans-serif" font-size="14" lengthAdjust="spacing" textLength="593.5371" x="518" y="310.9951">Create(const std::int32_t, const pid_t): score::cpp::optional&lt;SharedMemoryReader&gt;</text><ellipse cx="509" cy="323.9453" fill="#84BE84" rx="3" ry="3" style="stroke:#038048;stroke-width:1;"/><text fill="#000000" font-family="sans-serif" font-size="14" lengthAdjust="spacing" textLength="303.5498" x="518" y="327.292">Default(): std::unique_ptr&lt;ReaderFactory&gt;</text></g><!--class ReaderFactoryImpl--><g id="elem_ReaderFactoryImpl"><rect codeLine="8" fill="#F1F1F1" height="96.8906" id="ReaderFactoryImpl" rx="2.5" ry="2.5" style="stroke:#181818;stroke-width:0.5;" width="619.5371" x="498" y="396"/><ellipse cx="736.9468" cy="412" fill="#ADD1B2" rx="11" ry="11" style="stroke:#181818;stroke-width:1;"/><path d="M739.9155,417.6406 Q739.3374,417.9375 738.6968,418.0781 Q738.0562,418.2344 737.353,418.2344 Q734.853,418.2344 733.5249,416.5938 Q732.2124,414.9375 732.2124,411.8125 Q732.2124,408.6875 733.5249,407.0313 Q734.853,405.375 737.353,405.375 Q738.0562,405.375 738.6968,405.5313 Q739.353,405.6875 739.9155,405.9844 L739.9155,408.7031 Q739.2905,408.125 738.6968,407.8594 Q738.103,407.5781 737.478,407.5781 Q736.1343,407.5781 735.4468,408.6563 Q734.7593,409.7188 734.7593,411.8125 Q734.7593,413.9063 735.4468,414.9844 Q736.1343,416.0469 737.478,416.0469 Q738.103,416.0469 738.6968,415.7813 Q739.2905,415.5 739.9155,414.9219 L739.9155,417.6406 Z " fill="#000000"/><text fill="#000000" font-family="sans-serif" font-size="14" lengthAdjust="spacing" textLength="133.1436" x="757.4468" y="416.8467">ReaderFactoryImpl</text><line style="stroke:#181818;stroke-width:0.5;" x1="499" x2="1116.5371" y1="428" y2="428"/><rect fill="transparent" height="6" style="stroke:#C82930;stroke-width:1;" width="6" x="506" y="438.6484"/><text fill="#000000" font-family="sans-serif" font-size="14" lengthAdjust="spacing" textLength="395.2949" x="518" y="444.9951">mman_: score::cpp::pmr::unique_ptr&lt;score::os::Mman&gt;</text><rect fill="transparent" height="6" style="stroke:#C82930;stroke-width:1;" width="6" x="506" y="454.9453"/><text fill="#000000" font-family="sans-serif" font-size="14" lengthAdjust="spacing" textLength="362.6943" x="518" y="461.292">stat_: score::cpp::pmr::unique_ptr&lt;score::os::Stat&gt;</text><line style="stroke:#181818;stroke-width:0.5;" x1="499" x2="1116.5371" y1="468.5938" y2="468.5938"/><ellipse cx="509" cy="482.2422" fill="#84BE84" rx="3" ry="3" style="stroke:#038048;stroke-width:1;"/><text fill="#000000" font-family="sans-serif" font-size="14" lengthAdjust="spacing" textLength="593.5371" x="518" y="485.5889">Create(const std::int32_t, const pid_t): score::cpp::optional&lt;SharedMemoryReader&gt;</text></g><!--class SharedMemoryReader--><g id="elem_SharedMemoryReader"><rect codeLine="15" fill="#F1F1F1" height="422.8281" id="SharedMemoryReader" rx="2.5" ry="2.5" style="stroke:#181818;stroke-width:0.5;" width="742.7207" x="22.5" y="570"/><ellipse cx="311.2568" cy="586" fill="#ADD1B2" rx="11" ry="11" style="stroke:#181818;stroke-width:1;"/><path d="M314.2256,591.6406 Q313.6475,591.9375 313.0068,592.0781 Q312.3662,592.2344 311.6631,592.2344 Q309.1631,592.2344 307.835,590.5938 Q306.5225,588.9375 306.5225,585.8125 Q306.5225,582.6875 307.835,581.0313 Q309.1631,579.375 311.6631,579.375 Q312.3662,579.375 313.0068,579.5313 Q313.6631,579.6875 314.2256,579.9844 L314.2256,582.7031 Q313.6006,582.125 313.0068,581.8594 Q312.4131,581.5781 311.7881,581.5781 Q310.4443,581.5781 309.7568,582.6563 Q309.0693,583.7188 309.0693,585.8125 Q309.0693,587.9063 309.7568,588.9844 Q310.4443,590.0469 311.7881,590.0469 Q312.4131,590.0469 313.0068,589.7813 Q313.6006,589.5 314.2256,588.9219 L314.2256,591.6406 Z " fill="#000000"/><text fill="#000000" font-family="sans-serif" font-size="14" lengthAdjust="spacing" textLength="156.707" x="331.7568" y="590.8467">SharedMemoryReader</text><line style="stroke:#181818;stroke-width:0.5;" x1="23.5" x2="764.2207" y1="602" y2="602"/><rect fill="transparent" height="6" style="stroke:#C82930;stroke-width:1;" width="6" x="30.5" y="612.6484"/><text fill="#000000" font-family="sans-serif" font-size="14" lengthAdjust="spacing" textLength="196.6426" x="42.5" y="618.9951">shared_data_: SharedData&amp;</text><rect fill="transparent" height="6" style="stroke:#C82930;stroke-width:1;" width="6" x="30.5" y="628.9453"/><text fill="#000000" font-family="sans-serif" font-size="14" lengthAdjust="spacing" textLength="238.9707" x="42.5" y="635.292">unmap_callback_: UnmapCallback</text><rect fill="transparent" height="6" style="stroke:#C82930;stroke-width:1;" width="6" x="30.5" y="645.2422"/><text fill="#000000" font-family="sans-serif" font-size="14" lengthAdjust="spacing" textLength="313.9609" x="42.5" y="651.5889">linear_reader_: std::optional&lt;LinearReader&gt;</text><rect fill="transparent" height="6" style="stroke:#C82930;stroke-width:1;" width="6" x="30.5" y="661.5391"/><text fill="#000000" font-family="sans-serif" font-size="14" lengthAdjust="spacing" textLength="360.1719" x="42.5" y="667.8857">acquired_data_: std::optional&lt;ReadAcquireResult&gt;</text><rect fill="transparent" height="6" style="stroke:#C82930;stroke-width:1;" width="6" x="30.5" y="677.8359"/><text fill="#000000" font-family="sans-serif" font-size="14" lengthAdjust="spacing" textLength="253.5859" x="42.5" y="684.1826">number_of_acquired_bytes_: Length</text><rect fill="transparent" height="6" style="stroke:#C82930;stroke-width:1;" width="6" x="30.5" y="694.1328"/><text fill="#000000" font-family="sans-serif" font-size="14" lengthAdjust="spacing" textLength="257.3115" x="42.5" y="700.4795">finished_reading_after_detach_: bool</text><rect fill="transparent" height="6" style="stroke:#C82930;stroke-width:1;" width="6" x="30.5" y="710.4297"/><text fill="#000000" font-family="sans-serif" font-size="14" lengthAdjust="spacing" textLength="316.9209" x="42.5" y="716.7764">buffer_expected_to_read_next_: std::uint32_t</text><rect fill="transparent" height="6" style="stroke:#C82930;stroke-width:1;" width="6" x="30.5" y="726.7266"/><text fill="#000000" font-family="sans-serif" font-size="14" lengthAdjust="spacing" textLength="177.8506" x="42.5" y="733.0732">is_writer_detached_: bool</text><rect fill="transparent" height="6" style="stroke:#C82930;stroke-width:1;" width="6" x="30.5" y="743.0234"/><text fill="#000000" font-family="sans-serif" font-size="14" lengthAdjust="spacing" textLength="417.7031" x="42.5" y="749.3701">alternating_read_only_reader_: AlternatingReadOnlyReader</text><rect fill="#F24D5C" height="6" style="stroke:#C82930;stroke-width:1;" width="6" x="30.5" y="759.3203"/><text fill="#000000" font-family="sans-serif" font-size="14" lengthAdjust="spacing" textLength="143.0967" x="42.5" y="765.667">DetachWriter(): void</text><rect fill="#F24D5C" height="6" style="stroke:#C82930;stroke-width:1;" width="6" x="30.5" y="775.6172"/><text fill="#000000" font-family="sans-serif" font-size="14" lengthAdjust="spacing" textLength="172.2998" x="42.5" y="781.9639">IsWriterDetached(): bool</text><line style="stroke:#181818;stroke-width:0.5;" x1="23.5" x2="764.2207" y1="789.2656" y2="789.2656"/><ellipse cx="33.5" cy="811.0625" fill="#84BE84" rx="3" ry="3" style="stroke:#038048;stroke-width:1;"/><text fill="#000000" font-family="sans-serif" font-size="14" lengthAdjust="spacing" textLength="525.5469" x="42.5" y="806.2607">SharedMemoryReader(const SharedData&amp;, const score::cpp::span&lt;Byte&gt;,</text><text fill="#000000" font-family="sans-serif" font-size="14" lengthAdjust="spacing" textLength="337.709" x="51.4004" y="822.5576">const score::cpp::span&lt;Byte&gt;, UnmapCallback)</text><ellipse cx="33.5" cy="835.5078" fill="#84BE84" rx="3" ry="3" style="stroke:#038048;stroke-width:1;"/><text fill="#000000" font-family="sans-serif" font-size="14" lengthAdjust="spacing" textLength="649.1885" x="42.5" y="838.8545">Read(const TypeRegistrationCallback&amp;, const NewRecordCallback&amp;): std::optional&lt;Length&gt;</text><ellipse cx="33.5" cy="851.8047" fill="#84BE84" rx="3" ry="3" style="stroke:#038048;stroke-width:1;"/><text fill="#000000" font-family="sans-serif" font-size="14" lengthAdjust="spacing" textLength="573.9658" x="42.5" y="855.1514">PeekNumberOfBytesAcquiredInBuffer(const std::uint32_t): std::optional&lt;Length&gt;</text><ellipse cx="33.5" cy="868.1016" fill="#84BE84" rx="3" ry="3" style="stroke:#038048;stroke-width:1;"/><text fill="#000000" font-family="sans-serif" font-size="14" lengthAdjust="spacing" textLength="716.7207" x="42.5" y="871.4482">ReadDetached(const TypeRegistrationCallback&amp;, const NewRecordCallback&amp;): std::optional&lt;Length&gt;</text><ellipse cx="33.5" cy="884.3984" fill="#84BE84" rx="3" ry="3" style="stroke:#038048;stroke-width:1;"/><text fill="#000000" font-family="sans-serif" font-size="14" lengthAdjust="spacing" textLength="306.5508" x="42.5" y="887.7451">GetNumberOfDropsWithBufferFull(): Length</text><ellipse cx="33.5" cy="900.6953" fill="#84BE84" rx="3" ry="3" style="stroke:#038048;stroke-width:1;"/><text fill="#000000" font-family="sans-serif" font-size="14" lengthAdjust="spacing" textLength="279.0498" x="42.5" y="904.042">GetSizeOfDropsWithBufferFull(): Length</text><ellipse cx="33.5" cy="916.9922" fill="#84BE84" rx="3" ry="3" style="stroke:#038048;stroke-width:1;"/><text fill="#000000" font-family="sans-serif" font-size="14" lengthAdjust="spacing" textLength="314.4121" x="42.5" y="920.3389">GetNumberOfDropsWithInvalidSize(): Length</text><ellipse cx="33.5" cy="933.2891" fill="#84BE84" rx="3" ry="3" style="stroke:#038048;stroke-width:1;"/><text fill="#000000" font-family="sans-serif" font-size="14" lengthAdjust="spacing" textLength="235.6826" x="42.5" y="936.6357">GetRingBufferSizeBytes(): Length</text><ellipse cx="33.5" cy="949.5859" fill="#84BE84" rx="3" ry="3" style="stroke:#038048;stroke-width:1;"/><text fill="#000000" font-family="sans-serif" font-size="14" lengthAdjust="spacing" textLength="267.2305" x="42.5" y="952.9326">GetNumberOfAcquiredBytes(): Length</text><ellipse cx="33.5" cy="965.8828" fill="#84BE84" rx="3" ry="3" style="stroke:#038048;stroke-width:1;"/><text fill="#000000" font-family="sans-serif" font-size="14" lengthAdjust="spacing" textLength="232.0322" x="42.5" y="969.2295">IsBlockReleasedByWriters(): bool</text><ellipse cx="33.5" cy="982.1797" fill="#84BE84" rx="3" ry="3" style="stroke:#038048;stroke-width:1;"/><text fill="#000000" font-family="sans-serif" font-size="14" lengthAdjust="spacing" textLength="557.9219" x="42.5" y="985.5264">NotifyAcquisitionSetReader(const ReadAcquireResult&amp;): std::optional&lt;Length&gt;</text></g><!--class SharedData--><g id="elem_SharedData"><rect codeLine="41" fill="#F1F1F1" height="56.2656" id="SharedData" rx="2.5" ry="2.5" style="stroke:#181818;stroke-width:0.5;" width="137.9395" x="130" y="1098.5"/><ellipse cx="145" cy="1118.6328" fill="#ADD1B2" rx="11" ry="11" style="stroke:#181818;stroke-width:1;"/><path d="M147.9688,1124.2734 Q147.3906,1124.5703 146.75,1124.7109 Q146.1094,1124.8672 145.4063,1124.8672 Q142.9063,1124.8672 141.5781,1123.2266 Q140.2656,1121.5703 140.2656,1118.4453 Q140.2656,1115.3203 141.5781,1113.6641 Q142.9063,1112.0078 145.4063,1112.0078 Q146.1094,1112.0078 146.75,1112.1641 Q147.4063,1112.3203 147.9688,1112.6172 L147.9688,1115.3359 Q147.3438,1114.7578 146.75,1114.4922 Q146.1563,1114.2109 145.5313,1114.2109 Q144.1875,1114.2109 143.5,1115.2891 Q142.8125,1116.3516 142.8125,1118.4453 Q142.8125,1120.5391 143.5,1121.6172 Q144.1875,1122.6797 145.5313,1122.6797 Q146.1563,1122.6797 146.75,1122.4141 Q147.3438,1122.1328 147.9688,1121.5547 L147.9688,1124.2734 Z " fill="#000000"/><text fill="#000000" font-family="sans-serif" font-size="12" font-style="italic" lengthAdjust="spacing" textLength="109.9395" x="157" y="1114.6387">&#171;Shared Memory&#187;</text><text fill="#000000" font-family="sans-serif" font-size="14" lengthAdjust="spacing" textLength="83.0225" x="170.4585" y="1130.4639">SharedData</text><line style="stroke:#181818;stroke-width:0.5;" x1="131" x2="266.9395" y1="1138.7656" y2="1138.7656"/><line style="stroke:#181818;stroke-width:0.5;" x1="131" x2="266.9395" y1="1146.7656" y2="1146.7656"/></g><!--class LinearReader--><g id="elem_LinearReader"><rect codeLine="44" fill="#F1F1F1" height="113.1875" id="LinearReader" rx="2.5" ry="2.5" style="stroke:#181818;stroke-width:0.5;" width="415.71" x="303" y="1070"/><ellipse cx="459.7617" cy="1086" fill="#ADD1B2" rx="11" ry="11" style="stroke:#181818;stroke-width:1;"/><path d="M462.7305,1091.6406 Q462.1523,1091.9375 461.5117,1092.0781 Q460.8711,1092.2344 460.168,1092.2344 Q457.668,1092.2344 456.3398,1090.5938 Q455.0273,1088.9375 455.0273,1085.8125 Q455.0273,1082.6875 456.3398,1081.0313 Q457.668,1079.375 460.168,1079.375 Q460.8711,1079.375 461.5117,1079.5313 Q462.168,1079.6875 462.7305,1079.9844 L462.7305,1082.7031 Q462.1055,1082.125 461.5117,1081.8594 Q460.918,1081.5781 460.293,1081.5781 Q458.9492,1081.5781 458.2617,1082.6563 Q457.5742,1083.7188 457.5742,1085.8125 Q457.5742,1087.9063 458.2617,1088.9844 Q458.9492,1090.0469 460.293,1090.0469 Q460.918,1090.0469 461.5117,1089.7813 Q462.1055,1089.5 462.7305,1088.9219 L462.7305,1091.6406 Z " fill="#000000"/><text fill="#000000" font-family="sans-serif" font-size="14" lengthAdjust="spacing" textLength="93.6865" x="480.2617" y="1090.8467">LinearReader</text><line style="stroke:#181818;stroke-width:0.5;" x1="304" x2="717.71" y1="1102" y2="1102"/><rect fill="transparent" height="6" style="stroke:#C82930;stroke-width:1;" width="6" x="311" y="1112.6484"/><text fill="#000000" font-family="sans-serif" font-size="14" lengthAdjust="spacing" textLength="219.0508" x="323" y="1118.9951">data_: score::cpp::span&lt;Byte&gt;</text><rect fill="transparent" height="6" style="stroke:#C82930;stroke-width:1;" width="6" x="311" y="1128.9453"/><text fill="#000000" font-family="sans-serif" font-size="14" lengthAdjust="spacing" textLength="142.085" x="323" y="1135.292">read_index_: Length</text><line style="stroke:#181818;stroke-width:0.5;" x1="304" x2="717.71" y1="1142.5938" y2="1142.5938"/><ellipse cx="314" cy="1156.2422" fill="#84BE84" rx="3" ry="3" style="stroke:#038048;stroke-width:1;"/><text fill="#000000" font-family="sans-serif" font-size="14" lengthAdjust="spacing" textLength="329.2461" x="323" y="1159.5889">LinearReader(const score::cpp::span&lt;Byte&gt;&amp;)</text><ellipse cx="314" cy="1172.5391" fill="#84BE84" rx="3" ry="3" style="stroke:#038048;stroke-width:1;"/><text fill="#000000" font-family="sans-serif" font-size="14" lengthAdjust="spacing" textLength="389.71" x="323" y="1175.8857">Read(): score::cpp::optional&lt;score::cpp::span&lt;Byte&gt;&gt;</text></g><!--class Mman--><g id="elem_Mman"><rect codeLine="52" fill="#F1F1F1" height="48" id="Mman" rx="2.5" ry="2.5" style="stroke:#181818;stroke-width:0.5;" width="147.8213" x="801" y="757.5"/><ellipse cx="816" cy="773.5" fill="#ADD1B2" rx="11" ry="11" style="stroke:#181818;stroke-width:1;"/><path d="M818.9688,779.1406 Q818.3906,779.4375 817.75,779.5781 Q817.1094,779.7344 816.4063,779.7344 Q813.9063,779.7344 812.5781,778.0938 Q811.2656,776.4375 811.2656,773.3125 Q811.2656,770.1875 812.5781,768.5313 Q813.9063,766.875 816.4063,766.875 Q817.1094,766.875 817.75,767.0313 Q818.4063,767.1875 818.9688,767.4844 L818.9688,770.2031 Q818.3438,769.625 817.75,769.3594 Q817.1563,769.0781 816.5313,769.0781 Q815.1875,769.0781 814.5,770.1563 Q813.8125,771.2188 813.8125,773.3125 Q813.8125,775.4063 814.5,776.4844 Q815.1875,777.5469 816.5313,777.5469 Q817.1563,777.5469 817.75,777.2813 Q818.3438,777 818.9688,776.4219 L818.9688,779.1406 Z " fill="#000000"/><text fill="#000000" font-family="sans-serif" font-size="14" lengthAdjust="spacing" textLength="115.8213" x="830" y="778.3467">score::os::Mman</text><line style="stroke:#181818;stroke-width:0.5;" x1="802" x2="947.8213" y1="789.5" y2="789.5"/><line style="stroke:#181818;stroke-width:0.5;" x1="802" x2="947.8213" y1="797.5" y2="797.5"/></g><!--class Stat--><g id="elem_Stat"><rect codeLine="55" fill="#F1F1F1" height="48" id="Stat" rx="2.5" ry="2.5" style="stroke:#181818;stroke-width:0.5;" width="133.0967" x="984.5" y="757.5"/><ellipse cx="999.5" cy="773.5" fill="#ADD1B2" rx="11" ry="11" style="stroke:#181818;stroke-width:1;"/><path d="M1002.4688,779.1406 Q1001.8906,779.4375 1001.25,779.5781 Q1000.6094,779.7344 999.9063,779.7344 Q997.4063,779.7344 996.0781,778.0938 Q994.7656,776.4375 994.7656,773.3125 Q994.7656,770.1875 996.0781,768.5313 Q997.4063,766.875 999.9063,766.875 Q1000.6094,766.875 1001.25,767.0313 Q1001.9063,767.1875 1002.4688,767.4844 L1002.4688,770.2031 Q1001.8438,769.625 1001.25,769.3594 Q1000.6563,769.0781 1000.0313,769.0781 Q998.6875,769.0781 998,770.1563 Q997.3125,771.2188 997.3125,773.3125 Q997.3125,775.4063 998,776.4844 Q998.6875,777.5469 1000.0313,777.5469 Q1000.6563,777.5469 1001.25,777.2813 Q1001.8438,777 1002.4688,776.4219 L1002.4688,779.1406 Z " fill="#000000"/><text fill="#000000" font-family="sans-serif" font-size="14" lengthAdjust="spacing" textLength="101.0967" x="1013.5" y="778.3467">score::os::Stat</text><line style="stroke:#181818;stroke-width:0.5;" x1="985.5" x2="1116.5967" y1="789.5" y2="789.5"/><line style="stroke:#181818;stroke-width:0.5;" x1="985.5" x2="1116.5967" y1="797.5" y2="797.5"/></g><!--class DataRouter--><g id="elem_DataRouter"><rect codeLine="68" fill="#F1F1F1" height="113.1875" id="DataRouter" rx="2.5" ry="2.5" style="stroke:#181818;stroke-width:0.5;" width="409.2637" x="603.5" y="41"/><ellipse cx="763.6558" cy="57" fill="#ADD1B2" rx="11" ry="11" style="stroke:#181818;stroke-width:1;"/><path d="M766.6245,62.6406 Q766.0464,62.9375 765.4058,63.0781 Q764.7651,63.2344 764.062,63.2344 Q761.562,63.2344 760.2339,61.5938 Q758.9214,59.9375 758.9214,56.8125 Q758.9214,53.6875 760.2339,52.0313 Q761.562,50.375 764.062,50.375 Q764.7651,50.375 765.4058,50.5313 Q766.062,50.6875 766.6245,50.9844 L766.6245,53.7031 Q765.9995,53.125 765.4058,52.8594 Q764.812,52.5781 764.187,52.5781 Q762.8433,52.5781 762.1558,53.6563 Q761.4683,54.7188 761.4683,56.8125 Q761.4683,58.9063 762.1558,59.9844 Q762.8433,61.0469 764.187,61.0469 Q764.812,61.0469 765.4058,60.7813 Q765.9995,60.5 766.6245,59.9219 L766.6245,62.6406 Z " fill="#000000"/><text fill="#000000" font-family="sans-serif" font-size="14" lengthAdjust="spacing" textLength="80.4521" x="784.1558" y="61.8467">DataRouter</text><line style="stroke:#181818;stroke-width:0.5;" x1="604.5" x2="1011.7637" y1="73" y2="73"/><rect fill="transparent" height="6" style="stroke:#C82930;stroke-width:1;" width="6" x="611.5" y="83.6484"/><text fill="#000000" font-family="sans-serif" font-size="14" lengthAdjust="spacing" textLength="297.2539" x="623.5" y="89.9951">subscriberDatabase_: SubscriberDatabase</text><rect fill="transparent" height="6" style="stroke:#C82930;stroke-width:1;" width="6" x="611.5" y="99.9453"/><text fill="#000000" font-family="sans-serif" font-size="14" lengthAdjust="spacing" textLength="383.2637" x="623.5" y="106.292">databaseCallback_ : WriteSubscriberDatabaseCallback</text><line style="stroke:#181818;stroke-width:0.5;" x1="604.5" x2="1011.7637" y1="113.5938" y2="113.5938"/><ellipse cx="614.5" cy="127.2422" fill="#84BE84" rx="3" ry="3" style="stroke:#038048;stroke-width:1;"/><text fill="#000000" font-family="sans-serif" font-size="14" lengthAdjust="spacing" textLength="234.7529" x="623.5" y="130.5889">new_source_session(): SessionPtr</text><ellipse cx="614.5" cy="143.5391" fill="#84BE84" rx="3" ry="3" style="stroke:#038048;stroke-width:1;"/><text fill="#000000" font-family="sans-serif" font-size="14" lengthAdjust="spacing" textLength="260.9004" x="623.5" y="146.8857">new_subscriber_session(): SessionPtr</text></g><!--reverse link ReaderFactory to ReaderFactoryImpl--><g id="link_ReaderFactory_ReaderFactoryImpl"><path codeLine="59" d="M808,353.16 C808,371.83 808,376.24 808,395.82 " fill="transparent" id="ReaderFactory-backto-ReaderFactoryImpl" style="stroke:#181818;stroke-width:1;stroke-dasharray:7.0,7.0;"/><polygon fill="transparent" points="808,335.16,802,353.16,814,353.16,808,335.16" style="stroke:#181818;stroke-width:1;"/></g><!--link ReaderFactoryImpl to SharedMemoryReader--><g id="link_ReaderFactoryImpl_SharedMemoryReader"><path codeLine="60" d="M749.12,493.14 C722.78,514.46 694.3846,537.4363 659.0946,565.9863 " fill="transparent" id="ReaderFactoryImpl-to-SharedMemoryReader" style="stroke:#181818;stroke-width:1;stroke-dasharray:7.0,7.0;"/><polygon fill="#181818" points="654.43,569.76,663.9428,567.2091,658.3172,566.6152,658.9111,560.9896,654.43,569.76" style="stroke:#181818;stroke-width:1;"/><text fill="#000000" font-family="sans-serif" font-size="13" lengthAdjust="spacing" textLength="64.2319" x="708" y="536.0669">&#171;creates&#187;</text></g><!--link ReaderFactoryImpl to Mman--><g id="link_ReaderFactoryImpl_Mman"><path codeLine="61" d="M817.53,493.14 C832.12,566.12 858.2931,696.9566 869.1831,751.3966 " fill="transparent" id="ReaderFactoryImpl-to-Mman" style="stroke:#181818;stroke-width:1;stroke-dasharray:7.0,7.0;"/><polygon fill="#181818" points="870.36,757.28,872.5169,747.6702,869.3792,752.3771,864.6723,749.2394,870.36,757.28" style="stroke:#181818;stroke-width:1;"/><text fill="#000000" font-family="sans-serif" font-size="13" lengthAdjust="spacing" textLength="45.6904" x="826" y="536.0669">&#171;uses&#187;</text></g><!--link ReaderFactoryImpl to Stat--><g id="link_ReaderFactoryImpl_Stat"><path codeLine="62" d="M884.84,493.01 C913.62,513.8 944.71,540.26 967,570 C1011.71,629.67 1034.8749,710.5021 1044.6049,751.5121 " fill="transparent" id="ReaderFactoryImpl-to-Stat" style="stroke:#181818;stroke-width:1;stroke-dasharray:7.0,7.0;"/><polygon fill="#181818" points="1045.99,757.35,1047.8043,747.6697,1044.8357,752.4851,1040.0204,749.5165,1045.99,757.35" style="stroke:#181818;stroke-width:1;"/><text fill="#000000" font-family="sans-serif" font-size="13" lengthAdjust="spacing" textLength="45.6904" x="938" y="536.0669">&#171;uses&#187;</text></g><!--link SharedMemoryReader to SharedData--><g id="link_SharedMemoryReader_SharedData"><path codeLine="63" d="M274.11,993.38 C250.37,1035.13 231.4761,1068.3844 217.5261,1092.9144 " fill="transparent" id="SharedMemoryReader-to-SharedData" style="stroke:#181818;stroke-width:1;stroke-dasharray:7.0,7.0;"/><polygon fill="#181818" points="214.56,1098.13,222.4862,1092.284,217.0317,1093.7837,215.532,1088.3292,214.56,1098.13" style="stroke:#181818;stroke-width:1;"/><text fill="#000000" font-family="sans-serif" font-size="13" lengthAdjust="spacing" textLength="45.6904" x="257" y="1036.0669">&#171;uses&#187;</text></g><!--link SharedMemoryReader to LinearReader--><g id="link_SharedMemoryReader_LinearReader"><path codeLine="64" d="M465.93,993.38 C475.51,1021.45 482.6322,1042.3516 490.0922,1064.2116 " fill="transparent" id="SharedMemoryReader-to-LinearReader" style="stroke:#181818;stroke-width:1;stroke-dasharray:7.0,7.0;"/><polygon fill="#181818" points="492.03,1069.89,492.9089,1060.0804,490.4151,1065.158,485.3376,1062.6642,492.03,1069.89" style="stroke:#181818;stroke-width:1;"/><text fill="#000000" font-family="sans-serif" font-size="13" lengthAdjust="spacing" textLength="45.6904" x="480" y="1036.0669">&#171;uses&#187;</text></g><!--link DataRouter to ReaderFactory--><g id="link_DataRouter_ReaderFactory"><path codeLine="77" d="M808,154.12 C808,185.98 808,219.2 808,247.91 " fill="transparent" id="DataRouter-to-ReaderFactory" style="stroke:#181818;stroke-width:1;stroke-dasharray:7.0,7.0;"/><polygon fill="#181818" points="808,253.91,812,244.91,808,248.91,804,244.91,808,253.91" style="stroke:#181818;stroke-width:1;"/><text fill="#000000" font-family="sans-serif" font-size="13" lengthAdjust="spacing" textLength="45.6904" x="809" y="199.0669">&#171;uses&#187;</text></g><!--SRC=[jLPDJ-Cm4BtpAomEB0ZeOVSMLPM0YbKbljJkYijAbfiuhOLZ1zkXTDdzxpjsdCHkGfSBbogPUVEHDs_ibYHz8YkA3ejDad2vEaHl1mWnOQZAIGhsEIKPLTSaDL9j3n7HAB8uE4Adw4fHOkXnAeKsI9iiII39jw_OdA7QLh8CcvC4wLGgcYHfMIQ9B0sJWl3nOaqKpMvf0Idh_1EVTqfpKd5pR2DjragmvuhYqgXnr8Z5_ps0dvGJhNVwdXKbx_TkhRx_SrGKHE2ukx9GKJtlapf9RW4zyP7Q4FFno0MWwqYCFv6wa8e-md7HDxTaQEV26J44lgm6Jk7boFihKP0IfuJp9UW783-juSg_Un1dWXA5bKkD_VZQjc-SDvprEIBfSyM2md64nLxKY3dLe8acJ5J54Yh87BS9bbj3DMIueM9brXwNCy7q6hos9IPMcEGWSvnHGz8rW9TISWzTLdaEBlfQqjH0X94k20lwQfh6AZyb7y8qtYZM9OIeA2NXu1F4sC8kbnHysx5pqRdjXzw3ioR7XqzTqaTNmIx3YsIPTyrqRPxwkjRT5cvLrX-tLrmmtaPmeT1qISJu4lYSdFqIQ3yWri69hsoh-Le_jYKCRyMqKSIEjO6sbU_ePauXUTPwJdhASJDjpeS7If_kd03kSzk4zXB9PkBI3J7SgsPa_ybf6sx9_Ap6lrFJz3rLijIFpAphZgyhpkqC0_4w-8BzfXy6ztBFn0lXBBD9Xl1p45wTqI8Sa_lIDYmF0sVwailqQKuv9Tg2Qe7gI9cdw4uQbczTAiqiIGle8vHcR-NtaTe_ygocWwFElgAnFp1HlGcJYJlqmjZmP7BHeQ4z8fiZQd0HFCQjEHCPVOsFedOdmyp7-pRhADgbzww2uTXTRdQkCVU9zg57nCwjLJC93ntm2_J3tJxeDIirME8_1-C_er7_pjs5kNjuD9eCtKW932nrzwDs7p8SwDgtq4hlnRdk8zn0oQuJ9vYFm2E51050KjdymV9ibi1NBbMH95P1IbR6gkojOzqMdNip4DwzThTpjTIfOh27rhc43RENTCyO2DM-DkSIXWRTElOZeWky5QcW6wnbfLAAuQiq3DiAS54_FXWLmjgKxq87T0E6u2ijdx6A8aB_0G00]--></g></svg>