<svg xmlns="http://www.w3.org/2000/svg" xmlns:xlink="http://www.w3.org/1999/xlink" contentStyleType="text/css" data-diagram-type="DESCRIPTION" height="461px" preserveAspectRatio="none" style="width:1000px;height:461px;background:#FFFFFF;" version="1.1" viewBox="0 0 1000 461" width="1000px" zoomAndPan="magnify"><defs/><g><!--cluster LoggingClient--><g id="cluster_LoggingClient"><rect fill="transparent" height="317" rx="2.5" ry="2.5" style="stroke:#181818;stroke-width:1;" width="271" x="58" y="70"/><text fill="#000000" font-family="sans-serif" font-size="14" font-weight="bold" lengthAdjust="spacing" textLength="79.3311" x="153.8345" y="84.9951">&#171;Process&#187;</text><text fill="#000000" font-family="sans-serif" font-size="14" font-weight="bold" lengthAdjust="spacing" textLength="114.2695" x="136.3652" y="101.292">Logging Client</text></g><!--cluster Backend--><g id="cluster_Backend"><rect fill="transparent" height="210" rx="2.5" ry="2.5" style="stroke:#181818;stroke-width:1;" width="207" x="90" y="137"/><rect fill="transparent" height="10" style="stroke:#181818;stroke-width:1;" width="15" x="277" y="142"/><rect fill="transparent" height="2" style="stroke:#181818;stroke-width:1;" width="4" x="275" y="144"/><rect fill="transparent" height="2" style="stroke:#181818;stroke-width:1;" width="4" x="275" y="148"/><text fill="#000000" font-family="sans-serif" font-size="14" font-weight="bold" lengthAdjust="spacing" textLength="63.1572" x="161.9214" y="162.9951">mw::log</text><text fill="#000000" font-family="sans-serif" font-size="14" font-weight="bold" lengthAdjust="spacing" textLength="4.874" x="191.063" y="179.292">&#160;</text><text fill="#000000" font-family="sans-serif" font-size="14" font-weight="bold" lengthAdjust="spacing" textLength="154" x="116.5" y="195.5889">DatarouterBackend</text></g><!--cluster Datarouter--><g id="cluster_Datarouter"><rect fill="transparent" height="229" rx="2.5" ry="2.5" style="stroke:#181818;stroke-width:1;" width="223" x="511" y="145"/><text fill="#000000" font-family="sans-serif" font-size="14" font-weight="bold" lengthAdjust="spacing" textLength="79.3311" x="582.8345" y="159.9951">&#171;Process&#187;</text><text fill="#000000" font-family="sans-serif" font-size="14" font-weight="bold" lengthAdjust="spacing" textLength="86.7891" x="579.1055" y="176.292">Datarouter</text></g><!--entity ClientReceiver--><g id="elem_ClientReceiver"><rect fill="#F1F1F1" height="46.2969" rx="2.5" ry="2.5" style="stroke:#181818;stroke-width:0.5;" width="175.0508" x="106" y="204"/><rect fill="#F1F1F1" height="10" style="stroke:#181818;stroke-width:0.5;" width="15" x="261.0508" y="209"/><rect fill="#F1F1F1" height="2" style="stroke:#181818;stroke-width:0.5;" width="4" x="259.0508" y="211"/><rect fill="#F1F1F1" height="2" style="stroke:#181818;stroke-width:0.5;" width="4" x="259.0508" y="215"/><text fill="#000000" font-family="sans-serif" font-size="14" lengthAdjust="spacing" textLength="135.0508" x="121" y="236.9951">mw::com::Receiver</text></g><!--entity ClientSender--><g id="elem_ClientSender"><rect fill="#F1F1F1" height="46.2969" rx="2.5" ry="2.5" style="stroke:#181818;stroke-width:0.5;" width="163.4844" x="112" y="285"/><rect fill="#F1F1F1" height="10" style="stroke:#181818;stroke-width:0.5;" width="15" x="255.4844" y="290"/><rect fill="#F1F1F1" height="2" style="stroke:#181818;stroke-width:0.5;" width="4" x="253.4844" y="292"/><rect fill="#F1F1F1" height="2" style="stroke:#181818;stroke-width:0.5;" width="4" x="253.4844" y="296"/><text fill="#000000" font-family="sans-serif" font-size="14" lengthAdjust="spacing" textLength="123.4844" x="127" y="317.9951">mw::com::Sender</text></g><!--entity DrSender--><g id="elem_DrSender"><rect fill="#F1F1F1" height="46.2969" rx="2.5" ry="2.5" style="stroke:#181818;stroke-width:0.5;" width="163.4844" x="541" y="204"/><rect fill="#F1F1F1" height="10" style="stroke:#181818;stroke-width:0.5;" width="15" x="684.4844" y="209"/><rect fill="#F1F1F1" height="2" style="stroke:#181818;stroke-width:0.5;" width="4" x="682.4844" y="211"/><rect fill="#F1F1F1" height="2" style="stroke:#181818;stroke-width:0.5;" width="4" x="682.4844" y="215"/><text fill="#000000" font-family="sans-serif" font-size="14" lengthAdjust="spacing" textLength="123.4844" x="556" y="236.9951">mw::com::Sender</text></g><!--entity DrReceiver--><g id="elem_DrReceiver"><rect fill="#F1F1F1" height="46.2969" rx="2.5" ry="2.5" style="stroke:#181818;stroke-width:0.5;" width="175.0508" x="535" y="285"/><rect fill="#F1F1F1" height="10" style="stroke:#181818;stroke-width:0.5;" width="15" x="690.0508" y="290"/><rect fill="#F1F1F1" height="2" style="stroke:#181818;stroke-width:0.5;" width="4" x="688.0508" y="292"/><rect fill="#F1F1F1" height="2" style="stroke:#181818;stroke-width:0.5;" width="4" x="688.0508" y="296"/><text fill="#000000" font-family="sans-serif" font-size="14" lengthAdjust="spacing" textLength="135.0508" x="550" y="317.9951">mw::com::Receiver</text></g><!--entity SharedMemory--><g id="elem_SharedMemory"><rect fill="#F1F1F1" height="36.2969" rx="2.5" ry="2.5" style="stroke:#181818;stroke-width:0.5;" width="130.9814" x="864" y="375"/><text fill="#000000" font-family="sans-serif" font-size="14" lengthAdjust="spacing" textLength="110.9814" x="874" y="397.9951">Shared Memory</text></g><g id="elem_GMN14"><path d="M15,414 L15,454.2656 L372.1401,454.2656 L372.1401,424 L362.1401,414 L15,414 " fill="#FEFFDD" style="stroke:#181818;stroke-width:0.5;"/><path d="M362.1401,414 L362.1401,424 L372.1401,424 L362.1401,414 " fill="#FEFFDD" style="stroke:#181818;stroke-width:1;"/><text fill="#000000" font-family="sans-serif" font-size="13" lengthAdjust="spacing" textLength="336.1401" x="21" y="431.0669">Instantiates side channel to receive messages from</text><text fill="#000000" font-family="sans-serif" font-size="13" lengthAdjust="spacing" textLength="330.0718" x="21" y="446.1997">/mw_com/message_passing/logging.&lt;app&gt;.&lt;uid&gt;</text></g><g id="elem_GMN17"><path d="M507,81 L507,121.2656 A0,0 0 0 0 507,121.2656 L619,121.2656 L623,203.81 L627,121.2656 L737.8979,121.2656 A0,0 0 0 0 737.8979,121.2656 L737.8979,91 L727.8979,81 L507,81 A0,0 0 0 0 507,81 " fill="#FEFFDD" style="stroke:#181818;stroke-width:0.5;"/><path d="M727.8979,81 L727.8979,91 L737.8979,91 L727.8979,81 " fill="#FEFFDD" style="stroke:#181818;stroke-width:0.5;"/><text fill="#000000" font-family="sans-serif" font-size="13" lengthAdjust="spacing" textLength="209.8979" x="513" y="98.0669">Creates a Sender for each client</text><text fill="#000000" font-family="sans-serif" font-size="13" lengthAdjust="spacing" textLength="191.5405" x="513" y="113.1997">to send requests to the client</text></g><g id="elem_GMN20"><path d="M6,20.5 L6,45.6328 L381.396,45.6328 L381.396,30.5 L371.396,20.5 L6,20.5 " fill="#FEFFDD" style="stroke:#181818;stroke-width:0.5;"/><path d="M371.396,20.5 L371.396,30.5 L381.396,30.5 L371.396,20.5 " fill="#FEFFDD" style="stroke:#181818;stroke-width:1;"/><text fill="#000000" font-family="sans-serif" font-size="13" lengthAdjust="spacing" textLength="354.396" x="12" y="37.5669">Creates a Sender to reply to requests from Datarouter</text></g><g id="elem_GMN23"><path d="M441,6 L441,46.2656 L803.7388,46.2656 L803.7388,16 L793.7388,6 L441,6 " fill="#FEFFDD" style="stroke:#181818;stroke-width:0.5;"/><path d="M793.7388,6 L793.7388,16 L803.7388,16 L793.7388,6 " fill="#FEFFDD" style="stroke:#181818;stroke-width:1;"/><text fill="#000000" font-family="sans-serif" font-size="13" lengthAdjust="spacing" textLength="171.6787" x="447" y="23.0669">One receiver for all clients</text><text fill="#000000" font-family="sans-serif" font-size="13" lengthAdjust="spacing" textLength="341.7388" x="447" y="38.1997">/mw_com/message_passing/logging.datarouter_recv</text></g><!--reverse link LoggingClient to SharedMemory--><g id="link_LoggingClient_SharedMemory"><path d="M194,399.0771 C194,399.2019 194,387.514 194,387.6387 C194,391.63 194,395.5 194,395.5 C194,395.5 683.64,395.5 863.91,395.5 " fill="transparent" id="LoggingClient-backto-SharedMemory" style="stroke:#181818;stroke-width:1;"/><polygon fill="#181818" points="194,387.0771,190,393.0771,194,399.0771,198,393.0771,194,387.0771" style="stroke:#181818;stroke-width:1;"/><text fill="#000000" font-family="sans-serif" font-size="13" lengthAdjust="spacing" textLength="139.6167" x="573.7649" y="408.5669">Creates and writes to</text><text fill="#000000" font-family="sans-serif" font-size="13" lengthAdjust="spacing" textLength="243.6865" x="521.73" y="423.6997">/tmp/logging.&lt;appid&gt;.&lt;uid&gt;.shmem</text><text fill="#000000" font-family="sans-serif" font-size="13" lengthAdjust="spacing" textLength="146.9229" x="570.1118" y="438.8325">with permissions 0644</text></g><!--link Datarouter to SharedMemory--><g id="link_Datarouter_SharedMemory"><path d="M623,374.0239 C623,374.0471 623,374.0703 623,374.0935 C623,374.1398 623,374.186 623,374.2321 C623,374.6007 623,374.9613 623,375.3086 C623,376.0033 623,376.645 623,377.1919 C623,378.2856 623,379 623,379 C623,379 767.69,379 857.75,379 " fill="transparent" id="Datarouter-to-SharedMemory" style="stroke:#181818;stroke-width:1;"/><polygon fill="#181818" points="863.75,379,854.75,375,858.75,379,854.75,383,863.75,379" style="stroke:#181818;stroke-width:1;"/><text fill="#000000" font-family="sans-serif" font-size="13" lengthAdjust="spacing" textLength="113.3755" x="622.95" y="392.0669">Read-only access</text></g><!--link ClientReceiver to DrSender--><g id="link_ClientReceiver_DrSender"><path d="M281.09,234.67 C357.18,234.67 466.55,234.67 540.84,234.67 " fill="transparent" id="ClientReceiver-DrSender" style="stroke:#181818;stroke-width:1;"/><path d="M418.7111,241.7411 A10,10 0 0 0 418.7111 227.5989" fill="transparent" style="stroke:#181818;stroke-width:1.5;"/><ellipse cx="411.64" cy="234.67" fill="#FFFFFF" rx="6" ry="6" style="stroke:#181818;stroke-width:1.5;"/></g><!--link ClientSender to DrReceiver--><g id="link_ClientSender_DrReceiver"><path d="M275.2,315.67 C349.47,315.67 458.76,315.67 534.83,315.67 " fill="transparent" id="ClientSender-DrReceiver" style="stroke:#181818;stroke-width:1;"/><path d="M397.2689,308.5989 A10,10 0 0 0 397.2689 322.7411" fill="transparent" style="stroke:#181818;stroke-width:1.5;"/><ellipse cx="404.34" cy="315.67" fill="#FFFFFF" rx="6" ry="6" style="stroke:#181818;stroke-width:1.5;"/></g><!--link GMN14 to ClientReceiver--><g id="link_GMN14_ClientReceiver"><path d="M342,413.8 C342,360.37 342,219.33 342,219.33 C342,219.33 313.32,219.33 281.17,219.33 " fill="transparent" id="GMN14-ClientReceiver" style="stroke:#181818;stroke-width:1;stroke-dasharray:7.0,7.0;"/></g><!--link ClientSender to GMN20--><g id="link_ClientSender_GMN20"><path d="M275.16,300.33 C295.68,300.33 312,300.33 312,300.33 C312,300.33 312,98.39 312,45.54 " fill="transparent" id="ClientSender-GMN20" style="stroke:#181818;stroke-width:1;stroke-dasharray:7.0,7.0;"/></g><!--link DrReceiver to GMN23--><g id="link_DrReceiver_GMN23"><path d="M710.17,308 C742.32,308 771,308 771,308 C771,308 771,110.94 771,46.28 " fill="transparent" id="DrReceiver-GMN23" style="stroke:#181818;stroke-width:1;stroke-dasharray:7.0,7.0;"/></g><!--SRC=[ZL9DYzim4BthLmmvjGLlSbXwC267RYw5bfRTgo6eziGMAyseah8cbFtlbMGdiRCRsekGXZVpFaOQzm42WrDj5w1H3kkWc8H_LcIbamQq8Wn7Yy0kT2n4GaXgDS9YlVxfk4RlDvkAld7RAchXGIkai03fOImD5VWZ06esbYcz5gOlIyrjHHLjPP2E3m7T5ra_8pMvUxpdlZUTyLcMZrYZUa6NuGFBgNIpvocEd7KCXOX_5Q-ttLqavjRByprRrqHRToRvfusjErkOotdgfCC6lgDXTypGeJ8KX9Y7_QbekATYXe4I7XpAW1vapBLtAbq3LxGCnYxrCE1kBQrLpUPkVKYdxmoQYdeLEh3eZF8-_WyFgy_tzs8Imy2tkIPyHDaKJFe8iavP2Z7V4nIhZyKbeEbAeFYmAgPv2EA0KQy5thzTzrVoCQgWiZ-l6eIwaqIey_SUS62Y1Db6mDwnYKrBq-_Y3fPZVMTbj4VjB8in2P7-Ob8mrp7PxJbS60tisG7AkeCwYusGACMdEGv_7z27b3w43a-0AufV70ARYzlRJDcYZIddopWxUPpyrDlJ9na3_20ynJKua5gF-ln_9DQS-NPnoik5z2y0]--></g></svg>